<svg width="144" height="32" viewBox="0 0 144 32" fill="none" xmlns="http://www.w3.org/2000/svg">
<g filter="url(#filter0_f)">
<path d="M49.86 8.90039C51.0067 8.90039 52.1667 9.12706 53.34 9.58039L52.82 12.3004L52.34 12.4804C51.8334 12.1471 51.3267 11.8871 50.82 11.7004C50.3134 11.5137 49.8734 11.4204 49.5 11.4204C49.06 11.4204 48.7067 11.5337 48.44 11.7604C48.1867 11.9737 48.06 12.2271 48.06 12.5204C48.06 12.8537 48.22 13.1404 48.54 13.3804C48.8734 13.6071 49.3934 13.8804 50.1 14.2004C50.8467 14.5471 51.4467 14.8671 51.9 15.1604C52.3667 15.4404 52.7667 15.8204 53.1 16.3004C53.4467 16.7804 53.62 17.3671 53.62 18.0604C53.62 18.8337 53.4067 19.5337 52.98 20.1604C52.5667 20.7871 51.9734 21.2871 51.2 21.6604C50.4267 22.0204 49.5334 22.2004 48.52 22.2004C47.1734 22.2004 45.84 21.9337 44.52 21.4004L44.98 18.5004L45.32 18.3004C45.88 18.7671 46.4867 19.1337 47.14 19.4004C47.8067 19.6537 48.38 19.7804 48.86 19.7804C49.3667 19.7804 49.7467 19.6671 50 19.4404C50.2667 19.2137 50.4 18.9471 50.4 18.6404C50.4 18.2804 50.2334 17.9804 49.9 17.7404C49.5667 17.5004 49.0467 17.2204 48.34 16.9004C47.62 16.5671 47.0267 16.2604 46.56 15.9804C46.1067 15.6871 45.7134 15.3004 45.38 14.8204C45.0467 14.3404 44.88 13.7537 44.88 13.0604C44.88 12.2737 45.0867 11.5671 45.5 10.9404C45.9267 10.3004 46.5134 9.80039 47.26 9.44039C48.02 9.08039 48.8867 8.90039 49.86 8.90039Z" fill="#D9CCBF"/>
</g>
<g filter="url(#filter1_f)">
<path d="M107.48 19.48L107.26 21.9H100L100.18 18.08L100 9H103.3L103.12 17.76L103.18 19.24H107.28L107.48 19.48Z" fill="#D9CCBF"/>
</g>
<path d="M49.86 9.90039C51.0067 9.90039 52.1667 10.1271 53.34 10.5804L52.82 13.3004L52.34 13.4804C51.8334 13.1471 51.3267 12.8871 50.82 12.7004C50.3134 12.5137 49.8734 12.4204 49.5 12.4204C49.06 12.4204 48.7067 12.5337 48.44 12.7604C48.1867 12.9737 48.06 13.2271 48.06 13.5204C48.06 13.8537 48.22 14.1404 48.54 14.3804C48.8734 14.6071 49.3934 14.8804 50.1 15.2004C50.8467 15.5471 51.4467 15.8671 51.9 16.1604C52.3667 16.4404 52.7667 16.8204 53.1 17.3004C53.4467 17.7804 53.62 18.3671 53.62 19.0604C53.62 19.8337 53.4067 20.5337 52.98 21.1604C52.5667 21.7871 51.9734 22.2871 51.2 22.6604C50.4267 23.0204 49.5334 23.2004 48.52 23.2004C47.1734 23.2004 45.84 22.9337 44.52 22.4004L44.98 19.5004L45.32 19.3004C45.88 19.7671 46.4867 20.1337 47.14 20.4004C47.8067 20.6537 48.38 20.7804 48.86 20.7804C49.3667 20.7804 49.7467 20.6671 50 20.4404C50.2667 20.2137 50.4 19.9471 50.4 19.6404C50.4 19.2804 50.2334 18.9804 49.9 18.7404C49.5667 18.5004 49.0467 18.2204 48.34 17.9004C47.62 17.5671 47.0267 17.2604 46.56 16.9804C46.1067 16.6871 45.7134 16.3004 45.38 15.8204C45.0467 15.3404 44.88 14.7537 44.88 14.0604C44.88 13.2737 45.0867 12.5671 45.5 11.9404C45.9267 11.3004 46.5134 10.8004 47.26 10.4404C48.02 10.0804 48.8867 9.90039 49.86 9.90039Z" fill="#4C3F31"/>
<path d="M64.8753 18.0004L64.8553 19.6004C64.8553 20.7471 64.4553 21.6337 63.6553 22.2604C62.8553 22.8737 61.7153 23.1804 60.2353 23.1804C58.8087 23.1804 57.7153 22.8737 56.9553 22.2604C56.2087 21.6337 55.8487 20.7471 55.8753 19.6004L55.9153 17.9804L55.8353 12.8404H58.8353L58.6953 19.1804C58.682 19.7404 58.8087 20.1471 59.0753 20.4004C59.3553 20.6537 59.7887 20.7804 60.3753 20.7804C60.962 20.7804 61.3887 20.6537 61.6553 20.4004C61.9353 20.1471 62.0687 19.7404 62.0553 19.1804L61.9153 12.8404H64.9753L64.8753 18.0004Z" fill="#4C3F31"/>
<path d="M72.7263 12.8204C73.8996 12.8204 74.8063 13.1004 75.4463 13.6604C76.0863 14.2204 76.4063 15.0137 76.4063 16.0404C76.4063 16.8404 76.2063 17.5471 75.8063 18.1604C75.4196 18.7604 74.8729 19.2271 74.1663 19.5604C73.4596 19.8937 72.6396 20.0604 71.7063 20.0604H70.8063L70.9063 23.0004H67.9063L68.0463 20.0204L67.9063 12.8404L72.7263 12.8204ZM72.1663 17.9404C72.5396 17.7937 72.8129 17.5937 72.9863 17.3404C73.1596 17.0871 73.2463 16.7537 73.2463 16.3404C73.2463 15.8737 73.1196 15.5337 72.8663 15.3204C72.6263 15.0937 72.2329 14.9671 71.6863 14.9404L70.9063 15.0004L70.8263 17.8804L72.1663 17.9404Z" fill="#4C3F31"/>
<path d="M86.003 20.5804L86.183 20.7804L85.983 23.0004H78.643L78.783 20.0204L78.643 12.8404H86.083L86.263 13.0604L86.063 15.2604L83.423 15.1604H81.643L81.603 16.7204H83.323L85.063 16.6604L85.223 16.8804L85.043 19.1004L83.123 19.0404L81.543 19.0604L81.523 19.7204L81.563 20.6804H83.243L86.003 20.5804Z" fill="#4C3F31"/>
<path d="M95.2594 19.0204C95.8861 19.9671 96.6927 21.0604 97.6794 22.3004L97.6394 22.6404C96.6127 22.9471 95.6394 23.1271 94.7194 23.1804L94.2994 22.8804C93.7394 21.8537 93.2261 20.8604 92.7594 19.9004H91.4394L91.5594 23.0004H88.5594L88.6994 20.0204L88.5594 12.8404L93.3794 12.8204C94.5661 12.8204 95.4794 13.0937 96.1194 13.6404C96.7594 14.1737 97.0794 14.9404 97.0794 15.9404C97.0794 16.5537 96.9194 17.1271 96.5994 17.6604C96.2794 18.1937 95.8327 18.6471 95.2594 19.0204ZM93.8994 16.2404C93.8994 15.8004 93.7727 15.4804 93.5194 15.2804C93.2794 15.0804 92.8861 14.9671 92.3394 14.9404L91.5594 15.0004L91.4994 17.6804L92.8394 17.7604C93.2127 17.6271 93.4794 17.4404 93.6394 17.2004C93.8127 16.9471 93.8994 16.6271 93.8994 16.2404Z" fill="#4C3F31"/>
<path d="M107.421 20.5804L107.201 23.0004H99.9411L100.121 19.1804L99.9411 10.1004H103.241L103.061 18.8604L103.121 20.3404H107.221L107.421 20.5804Z" fill="#4C3F31"/>
<path d="M112.229 19.7204L112.349 23.0004H109.349L109.489 20.0204L109.349 12.8404H112.409L112.229 19.7204Z" fill="#4C3F31"/>
<path d="M121.313 23.0004H117.693L114.633 12.8404H117.673L117.973 14.4804L119.473 20.3004H119.653L121.453 14.6604L121.753 12.8404H124.693L121.313 23.0004Z" fill="#4C3F31"/>
<path d="M134.023 20.5804L134.203 20.7804L134.003 23.0004H126.663L126.803 20.0204L126.663 12.8404H134.103L134.283 13.0604L134.083 15.2604L131.443 15.1604H129.663L129.623 16.7204H131.343L133.083 16.6604L133.243 16.8804L133.063 19.1004L131.143 19.0404L129.563 19.0604L129.543 19.7204L129.583 20.6804H131.263L134.023 20.5804Z" fill="#4C3F31"/>
<path d="M49.86 8.90039C51.0067 8.90039 52.1667 9.12706 53.34 9.58039L52.82 12.3004L52.34 12.4804C51.8334 12.1471 51.3267 11.8871 50.82 11.7004C50.3134 11.5137 49.8734 11.4204 49.5 11.4204C49.06 11.4204 48.7067 11.5337 48.44 11.7604C48.1867 11.9737 48.06 12.2271 48.06 12.5204C48.06 12.8537 48.22 13.1404 48.54 13.3804C48.8734 13.6071 49.3934 13.8804 50.1 14.2004C50.8467 14.5471 51.4467 14.8671 51.9 15.1604C52.3667 15.4404 52.7667 15.8204 53.1 16.3004C53.4467 16.7804 53.62 17.3671 53.62 18.0604C53.62 18.8337 53.4067 19.5337 52.98 20.1604C52.5667 20.7871 51.9734 21.2871 51.2 21.6604C50.4267 22.0204 49.5334 22.2004 48.52 22.2004C47.1734 22.2004 45.84 21.9337 44.52 21.4004L44.98 18.5004L45.32 18.3004C45.88 18.7671 46.4867 19.1337 47.14 19.4004C47.8067 19.6537 48.38 19.7804 48.86 19.7804C49.3667 19.7804 49.7467 19.6671 50 19.4404C50.2667 19.2137 50.4 18.9471 50.4 18.6404C50.4 18.2804 50.2334 17.9804 49.9 17.7404C49.5667 17.5004 49.0467 17.2204 48.34 16.9004C47.62 16.5671 47.0267 16.2604 46.56 15.9804C46.1067 15.6871 45.7134 15.3004 45.38 14.8204C45.0467 14.3404 44.88 13.7537 44.88 13.0604C44.88 12.2737 45.0867 11.5671 45.5 10.9404C45.9267 10.3004 46.5134 9.80039 47.26 9.44039C48.02 9.08039 48.8867 8.90039 49.86 8.90039Z" fill="#B2A597"/>
<path d="M64.8753 17.0004L64.8553 18.6004C64.8553 19.7471 64.4553 20.6337 63.6553 21.2604C62.8553 21.8737 61.7153 22.1804 60.2353 22.1804C58.8087 22.1804 57.7153 21.8737 56.9553 21.2604C56.2087 20.6337 55.8487 19.7471 55.8753 18.6004L55.9153 16.9804L55.8353 11.8404H58.8353L58.6953 18.1804C58.682 18.7404 58.8087 19.1471 59.0753 19.4004C59.3553 19.6537 59.7887 19.7804 60.3753 19.7804C60.962 19.7804 61.3887 19.6537 61.6553 19.4004C61.9353 19.1471 62.0687 18.7404 62.0553 18.1804L61.9153 11.8404H64.9753L64.8753 17.0004Z" fill="#B2A597"/>
<path d="M72.7263 11.8204C73.8996 11.8204 74.8063 12.1004 75.4463 12.6604C76.0863 13.2204 76.4063 14.0137 76.4063 15.0404C76.4063 15.8404 76.2063 16.5471 75.8063 17.1604C75.4196 17.7604 74.8729 18.2271 74.1663 18.5604C73.4596 18.8937 72.6396 19.0604 71.7063 19.0604H70.8063L70.9063 22.0004H67.9063L68.0463 19.0204L67.9063 11.8404L72.7263 11.8204ZM72.1663 16.9404C72.5396 16.7937 72.8129 16.5937 72.9863 16.3404C73.1596 16.0871 73.2463 15.7537 73.2463 15.3404C73.2463 14.8737 73.1196 14.5337 72.8663 14.3204C72.6263 14.0937 72.2329 13.9671 71.6863 13.9404L70.9063 14.0004L70.8263 16.8804L72.1663 16.9404Z" fill="#B2A597"/>
<path d="M86.003 19.5804L86.183 19.7804L85.983 22.0004H78.643L78.783 19.0204L78.643 11.8404H86.083L86.263 12.0604L86.063 14.2604L83.423 14.1604H81.643L81.603 15.7204H83.323L85.063 15.6604L85.223 15.8804L85.043 18.1004L83.123 18.0404L81.543 18.0604L81.523 18.7204L81.563 19.6804H83.243L86.003 19.5804Z" fill="#B2A597"/>
<path d="M95.2594 18.0204C95.8861 18.9671 96.6927 20.0604 97.6794 21.3004L97.6394 21.6404C96.6127 21.9471 95.6394 22.1271 94.7194 22.1804L94.2994 21.8804C93.7394 20.8537 93.2261 19.8604 92.7594 18.9004H91.4394L91.5594 22.0004H88.5594L88.6994 19.0204L88.5594 11.8404L93.3794 11.8204C94.5661 11.8204 95.4794 12.0937 96.1194 12.6404C96.7594 13.1737 97.0794 13.9404 97.0794 14.9404C97.0794 15.5537 96.9194 16.1271 96.5994 16.6604C96.2794 17.1937 95.8327 17.6471 95.2594 18.0204ZM93.8994 15.2404C93.8994 14.8004 93.7727 14.4804 93.5194 14.2804C93.2794 14.0804 92.8861 13.9671 92.3394 13.9404L91.5594 14.0004L91.4994 16.6804L92.8394 16.7604C93.2127 16.6271 93.4794 16.4404 93.6394 16.2004C93.8127 15.9471 93.8994 15.6271 93.8994 15.2404Z" fill="#B2A597"/>
<path d="M107.421 19.5804L107.201 22.0004H99.9411L100.121 18.1804L99.9411 9.10039H103.241L103.061 17.8604L103.121 19.3404H107.221L107.421 19.5804Z" fill="#B2A597"/>
<path d="M112.229 18.7204L112.349 22.0004H109.349L109.489 19.0204L109.349 11.8404H112.409L112.229 18.7204Z" fill="#B2A597"/>
<path d="M121.313 22.0004H117.693L114.633 11.8404H117.673L117.973 13.4804L119.473 19.3004H119.653L121.453 13.6604L121.753 11.8404H124.693L121.313 22.0004Z" fill="#B2A597"/>
<path d="M134.023 19.5804L134.203 19.7804L134.003 22.0004H126.663L126.803 19.0204L126.663 11.8404H134.103L134.283 12.0604L134.083 14.2604L131.443 14.1604H129.663L129.623 15.7204H131.343L133.083 15.6604L133.243 15.8804L133.063 18.1004L131.143 18.0404L129.563 18.0604L129.543 18.7204L129.583 19.6804H131.263L134.023 19.5804Z" fill="#B2A597"/>
<mask id="mask0" mask-type="alpha" maskUnits="userSpaceOnUse" x="8" y="7" width="127" height="10">
<path d="M135 7H8V17H135V7Z" fill="#C4C4C4"/>
</mask>
<g mask="url(#mask0)">
<path d="M49.86 8.90039C51.0067 8.90039 52.1667 9.12706 53.34 9.58039L52.82 12.3004L52.34 12.4804C51.8334 12.1471 51.3267 11.8871 50.82 11.7004C50.3134 11.5137 49.8734 11.4204 49.5 11.4204C49.06 11.4204 48.7067 11.5337 48.44 11.7604C48.1867 11.9737 48.06 12.2271 48.06 12.5204C48.06 12.8537 48.22 13.1404 48.54 13.3804C48.8734 13.6071 49.3934 13.8804 50.1 14.2004C50.8467 14.5471 51.4467 14.8671 51.9 15.1604C52.3667 15.4404 52.7667 15.8204 53.1 16.3004C53.4467 16.7804 53.62 17.3671 53.62 18.0604C53.62 18.8337 53.4067 19.5337 52.98 20.1604C52.5667 20.7871 51.9734 21.2871 51.2 21.6604C50.4267 22.0204 49.5334 22.2004 48.52 22.2004C47.1734 22.2004 45.84 21.9337 44.52 21.4004L44.98 18.5004L45.32 18.3004C45.88 18.7671 46.4867 19.1337 47.14 19.4004C47.8067 19.6537 48.38 19.7804 48.86 19.7804C49.3667 19.7804 49.7467 19.6671 50 19.4404C50.2667 19.2137 50.4 18.9471 50.4 18.6404C50.4 18.2804 50.2334 17.9804 49.9 17.7404C49.5667 17.5004 49.0467 17.2204 48.34 16.9004C47.62 16.5671 47.0267 16.2604 46.56 15.9804C46.1067 15.6871 45.7134 15.3004 45.38 14.8204C45.0467 14.3404 44.88 13.7537 44.88 13.0604C44.88 12.2737 45.0867 11.5671 45.5 10.9404C45.9267 10.3004 46.5134 9.80039 47.26 9.44039C48.02 9.08039 48.8867 8.90039 49.86 8.90039Z" fill="#D9CCBF"/>
<path d="M64.8753 17.0004L64.8553 18.6004C64.8553 19.7471 64.4553 20.6337 63.6553 21.2604C62.8553 21.8737 61.7153 22.1804 60.2353 22.1804C58.8087 22.1804 57.7153 21.8737 56.9553 21.2604C56.2087 20.6337 55.8487 19.7471 55.8753 18.6004L55.9153 16.9804L55.8353 11.8404H58.8353L58.6953 18.1804C58.682 18.7404 58.8087 19.1471 59.0753 19.4004C59.3553 19.6537 59.7887 19.7804 60.3753 19.7804C60.962 19.7804 61.3887 19.6537 61.6553 19.4004C61.9353 19.1471 62.0687 18.7404 62.0553 18.1804L61.9153 11.8404H64.9753L64.8753 17.0004Z" fill="#D9CCBF"/>
<path d="M72.7263 11.8204C73.8996 11.8204 74.8063 12.1004 75.4463 12.6604C76.0863 13.2204 76.4063 14.0137 76.4063 15.0404C76.4063 15.8404 76.2063 16.5471 75.8063 17.1604C75.4196 17.7604 74.8729 18.2271 74.1663 18.5604C73.4596 18.8937 72.6396 19.0604 71.7063 19.0604H70.8063L70.9063 22.0004H67.9063L68.0463 19.0204L67.9063 11.8404L72.7263 11.8204ZM72.1663 16.9404C72.5396 16.7937 72.8129 16.5937 72.9863 16.3404C73.1596 16.0871 73.2463 15.7537 73.2463 15.3404C73.2463 14.8737 73.1196 14.5337 72.8663 14.3204C72.6263 14.0937 72.2329 13.9671 71.6863 13.9404L70.9063 14.0004L70.8263 16.8804L72.1663 16.9404Z" fill="#D9CCBF"/>
<path d="M86.003 19.5804L86.183 19.7804L85.983 22.0004H78.643L78.783 19.0204L78.643 11.8404H86.083L86.263 12.0604L86.063 14.2604L83.423 14.1604H81.643L81.603 15.7204H83.323L85.063 15.6604L85.223 15.8804L85.043 18.1004L83.123 18.0404L81.543 18.0604L81.523 18.7204L81.563 19.6804H83.243L86.003 19.5804Z" fill="#D9CCBF"/>
<path d="M95.2594 18.0204C95.8861 18.9671 96.6927 20.0604 97.6794 21.3004L97.6394 21.6404C96.6127 21.9471 95.6394 22.1271 94.7194 22.1804L94.2994 21.8804C93.7394 20.8537 93.2261 19.8604 92.7594 18.9004H91.4394L91.5594 22.0004H88.5594L88.6994 19.0204L88.5594 11.8404L93.3794 11.8204C94.5661 11.8204 95.4794 12.0937 96.1194 12.6404C96.7594 13.1737 97.0794 13.9404 97.0794 14.9404C97.0794 15.5537 96.9194 16.1271 96.5994 16.6604C96.2794 17.1937 95.8327 17.6471 95.2594 18.0204ZM93.8994 15.2404C93.8994 14.8004 93.7727 14.4804 93.5194 14.2804C93.2794 14.0804 92.8861 13.9671 92.3394 13.9404L91.5594 14.0004L91.4994 16.6804L92.8394 16.7604C93.2127 16.6271 93.4794 16.4404 93.6394 16.2004C93.8127 15.9471 93.8994 15.6271 93.8994 15.2404Z" fill="#D9CCBF"/>
<path d="M107.421 19.5804L107.201 22.0004H99.9411L100.121 18.1804L99.9411 9.10039H103.241L103.061 17.8604L103.121 19.3404H107.221L107.421 19.5804Z" fill="#D9CCBF"/>
<path d="M112.229 18.7204L112.349 22.0004H109.349L109.489 19.0204L109.349 11.8404H112.409L112.229 18.7204Z" fill="#D9CCBF"/>
<path d="M121.313 22.0004H117.693L114.633 11.8404H117.673L117.973 13.4804L119.473 19.3004H119.653L121.453 13.6604L121.753 11.8404H124.693L121.313 22.0004Z" fill="#D9CCBF"/>
<path d="M134.023 19.5804L134.203 19.7804L134.003 22.0004H126.663L126.803 19.0204L126.663 11.8404H134.103L134.283 12.0604L134.083 14.2604L131.443 14.1604H129.663L129.623 15.7204H131.343L133.083 15.6604L133.243 15.8804L133.063 18.1004L131.143 18.0404L129.563 18.0604L129.543 18.7204L129.583 19.6804H131.263L134.023 19.5804Z" fill="#D9CCBF"/>
</g>
<g filter="url(#filter2_f)">
<path d="M37.4988 8.41637C36.2789 7.58063 34.7988 7.21237 33.3295 7.37905C31.8602 7.54574 30.5002 8.2362 29.4985 9.32396L29.487 9.34069C28.644 10.2644 28.1031 11.4235 27.9367 12.6629C27.7702 13.9024 27.9862 15.1631 28.5556 16.2765C29.1251 17.3899 30.0209 18.3028 31.1233 18.8933C32.2257 19.4838 33.4821 19.7236 34.7245 19.5807C35.9668 19.4378 37.136 18.919 38.0755 18.0937C39.015 17.2683 39.6802 16.1758 39.982 14.9622C40.2838 13.7486 40.2079 12.4718 39.7644 11.3025C39.3209 10.1332 38.531 9.12721 37.5003 8.41902L37.4988 8.41637ZM33.8361 18.2571C33.6503 18.0375 33.2317 17.5019 33.0647 16.9586C33.5999 16.2753 34.5084 15.0965 34.6541 14.9059C35.0824 14.916 36.2343 14.934 36.7128 14.8638C37.1046 15.4315 37.4638 16.021 37.7888 16.6295C37.5486 17.1919 37.0772 17.7154 36.7821 18.0086C35.7122 18.5165 34.2814 18.3332 33.8361 18.2571ZM33.443 12.4168C32.6621 12.253 31.3815 11.9396 31.0522 11.8596C30.9387 11.5467 30.6957 10.8297 30.6621 10.4173C31.2013 9.65726 31.8852 9.01108 32.6747 8.51586C33.1378 8.52535 34.1921 8.57315 34.7653 8.84548C35.0002 9.50625 35.1682 10.1889 35.2669 10.8832C34.911 11.174 33.7675 12.1093 33.443 12.4168ZM29.3854 10.5928C29.3638 10.4158 29.3757 10.2362 29.4206 10.0636C30.1781 9.04036 31.2561 8.30004 32.4831 7.96055L32.4606 8.36382C31.7117 8.84715 31.058 9.46395 30.5321 10.1835C30.1315 10.2619 29.745 10.3998 29.3854 10.5928ZM35.5081 10.8141C35.408 10.1256 35.2407 9.4485 35.0086 8.79258C35.3668 8.68896 35.731 8.60742 36.0992 8.54843C36.1137 8.5584 37.6425 9.30664 38.4247 10.2858C38.6073 10.6462 38.8755 11.2525 38.869 11.6421C38.4149 11.8129 37.8157 12.0301 37.4284 12.1516C37.1202 11.8282 35.9809 10.9649 35.5081 10.8141ZM37.9723 16.4485C37.656 15.8636 37.3087 15.296 36.9318 14.7482C37.0123 14.4423 37.4256 12.8656 37.4988 12.3839C37.9479 12.2441 38.6076 11.9962 38.9355 11.875C39.1021 12.1799 39.587 13.2308 39.587 13.2308C39.5075 14.2385 39.2426 15.2228 38.8057 16.1343C38.5333 16.2539 38.2549 16.3591 37.9715 16.4496L37.9723 16.4485ZM39.0566 16.1753C39.3678 15.516 39.5913 14.8188 39.7213 14.1014C39.6419 14.8403 39.4182 15.5565 39.0629 16.2092L39.0566 16.1753ZM38.4961 9.87835C38.4771 9.8916 38.4571 9.90409 38.4377 9.91546C37.5938 9.00712 36.2721 8.35188 36.212 8.32213L35.976 8.07292C36.9666 8.42998 37.8396 9.05312 38.4991 9.87389L38.4961 9.87835ZM29.1799 10.7915C29.0224 11.0972 28.5475 12.0895 28.5931 12.9075C28.5165 13.019 28.4083 13.2123 28.2946 13.4232C28.3008 12.3829 28.5919 11.3641 29.1362 10.4774C29.1382 10.5854 29.1513 10.6929 29.1753 10.7982L29.1799 10.7915ZM28.3151 13.9382C28.4319 13.6786 28.5646 13.4265 28.7124 13.1832C29.0107 13.4683 29.3578 13.6973 29.7372 13.8594C29.7372 13.8594 30.6591 12.4746 31.0118 12.0929C31.3556 12.178 32.5921 12.4792 33.37 12.6425C33.4734 13.111 34.1447 14.4475 34.4186 14.8114C34.1903 15.1078 33.4137 16.1162 32.922 16.7505C32.68 16.7633 32.003 16.7496 30.9093 16.3529C30.3639 15.7007 29.8473 13.6657 29.8412 13.6484L29.7429 13.8584L29.6059 13.7757C29.6251 13.853 30.0987 15.6613 30.6497 16.4176C30.5761 16.661 30.4306 17.1571 30.371 17.4183C30.0163 17.3009 29.6895 17.1121 29.4106 16.8635C28.7827 16.0106 28.4024 15.0009 28.3117 13.9457L28.3151 13.9382ZM29.9831 17.536C30.1479 17.6139 30.3226 17.6693 30.5022 17.7006C30.9894 18.06 31.498 18.3892 32.0254 18.6864C32.0612 18.7675 32.1138 18.84 32.1797 18.8992C31.3533 18.6179 30.602 18.1516 29.9831 17.536ZM33.2233 19.1466C32.7283 18.997 32.4831 18.8449 32.3597 18.7305C32.8048 18.6698 33.246 18.5824 33.6807 18.4689C33.9244 18.5182 35.3901 18.7846 36.6135 18.3377L36.7749 18.4995C35.6902 19.0929 34.4435 19.3221 33.2187 19.1532L33.2233 19.1466Z" fill="#D9CCBF"/>
<path d="M34.3632 11.9598C34.3632 11.9598 35.4412 11.0863 35.606 11.1715C35.969 11.3602 37.1097 12.2047 37.1645 12.3951C37.2193 12.5855 36.9257 13.8732 36.9257 13.8732C36.9257 13.8732 37.0608 12.5078 36.9975 12.4446C36.521 12.017 35.6265 11.3663 35.4128 11.4526C34.5557 11.8014 34.5767 11.9095 34.3632 11.9598Z" fill="#D9CCBF"/>
<path d="M31.5432 16.8372C31.6067 16.8643 32.7209 17.0042 32.785 17.114C32.8492 17.2237 33.313 17.9875 33.313 17.9875C33.313 17.9875 32.8112 17.3388 32.6435 17.2483C32.4758 17.1577 31.5432 16.8372 31.5432 16.8372Z" fill="#D9CCBF"/>
<path d="M29.6331 10.6668C29.6331 10.6668 30.3817 10.3158 30.4141 10.412C30.4466 10.5081 30.8523 11.7508 30.8115 11.846C30.7708 11.9412 30.4577 12.5044 30.4577 12.5044C30.5449 12.2621 30.6163 12.0145 30.6715 11.763C30.6556 11.5878 30.3128 10.5952 30.2511 10.5775C30.0435 10.5946 29.8371 10.6244 29.6331 10.6668Z" fill="#D9CCBF"/>
<path d="M30.7283 18.2702C30.7283 18.2702 21.387 18.0298 14.115 25.0835C14.115 25.0835 21.1433 18.841 33.5089 19.601C33.5119 19.5965 30.79 18.5031 30.7283 18.2702Z" fill="#D9CCBF"/>
<path d="M28.0177 14.2951C28.0177 14.2951 17.8178 15.235 10.1719 25.4213C10.1719 25.4213 16.2605 17.7811 28.3648 15.6733C28.3682 15.6756 28.249 14.8071 28.0177 14.2951Z" fill="#D9CCBF"/>
<path d="M30.1904 8.80026C30.1904 8.80026 18.4792 11.3374 10.6122 21.3028C10.6122 21.3028 16.4881 13.7907 28.5336 10.9462C28.537 10.9485 29.8997 9.37396 30.1904 8.80026Z" fill="#D9CCBF"/>
</g>
<path d="M37.6787 8.53976C36.4409 7.69185 34.9232 7.34118 33.4038 7.55197C31.8843 7.76277 30.4648 8.52091 29.4053 9.68754L29.393 9.70539C28.501 10.6959 27.9149 11.9262 27.7131 13.2318C27.5113 14.5373 27.7033 15.8559 28.2635 17.0112C28.8237 18.1665 29.7255 19.1034 30.8481 19.6966C31.9707 20.2899 33.2607 20.5111 34.5455 20.3308C35.8304 20.1505 37.0488 19.5773 38.0379 18.6877C39.027 17.7982 39.7397 16.6348 40.0805 15.353C40.4213 14.0713 40.3741 12.7324 39.9451 11.5153C39.5162 10.2982 38.7259 9.26108 37.6801 8.54251L37.6787 8.53976ZM33.6615 18.9626C33.4752 18.7365 33.0565 18.1843 32.8975 17.6178C33.4661 16.8872 34.4319 15.6272 34.5868 15.4236C35.0282 15.4238 36.2158 15.4147 36.7111 15.3292C37.1014 15.9159 37.4575 16.5261 37.7779 17.1572C37.5164 17.7536 37.0175 18.3148 36.706 18.6298C35.5902 19.1893 34.1189 19.0316 33.6615 18.9626ZM33.3982 12.8392C32.5968 12.6863 31.2836 12.3884 30.9459 12.3123C30.8365 11.9866 30.6033 11.2395 30.5787 10.8074C31.1533 9.99609 31.8745 9.30089 32.7008 8.76165C33.1782 8.76035 34.2644 8.78488 34.849 9.0569C35.0751 9.74505 35.2318 10.4578 35.3167 11.1844C34.9426 11.4985 33.7404 12.5085 33.3982 12.8392ZM29.2577 11.0227C29.2397 10.8373 29.2564 10.6485 29.3069 10.4661C30.113 9.37319 31.2429 8.56955 32.5167 8.1832L32.4836 8.60721C31.6995 9.13298 31.0103 9.79658 30.4503 10.565C30.0353 10.657 29.6333 10.8113 29.2577 11.0227ZM35.5672 11.106C35.4807 10.3855 35.3246 9.67855 35.1012 8.99543C35.4731 8.8779 35.8508 8.78341 36.232 8.7125C36.2467 8.72261 37.8052 9.47112 38.5881 10.4803C38.7677 10.8542 39.0296 11.4844 39.0133 11.8937C38.5409 12.0841 37.9176 12.3268 37.5152 12.4638C37.2052 12.1317 36.0511 11.2529 35.5672 11.106ZM37.9715 16.9626C37.6595 16.3562 37.3151 15.7686 36.9398 15.2025C37.0302 14.8793 37.4949 13.2136 37.5821 12.706C38.0487 12.5483 38.7351 12.2719 39.0763 12.1367C39.2407 12.4528 39.7153 13.5445 39.7153 13.5445C39.6087 14.6046 39.3115 15.6446 38.8387 16.6124C38.5549 16.7446 38.2652 16.8619 37.9707 16.9638L37.9715 16.9626ZM39.0965 16.6494C39.4335 15.9495 39.681 15.2119 39.8325 14.4554C39.7327 15.2333 39.4845 15.9907 39.1022 16.6848L39.0965 16.6494ZM38.6717 10.0507C38.6518 10.0651 38.6308 10.0787 38.6106 10.0911C37.7622 9.15778 36.415 8.5019 36.3538 8.47212L36.1165 8.21618C37.1294 8.567 38.0147 9.2001 38.6749 10.0459L38.6717 10.0507ZM29.0409 11.2364C28.871 11.5612 28.3571 12.6148 28.3842 13.4726C28.3024 13.5916 28.1861 13.7972 28.0637 14.0215C28.0955 12.9288 28.4205 11.8519 29.0035 10.9076C29.0029 11.021 29.0138 11.1335 29.036 11.2435L29.0409 11.2364ZM28.0724 14.5617C28.1992 14.2863 28.3422 14.0183 28.5005 13.7592C28.8012 14.0513 29.1536 14.2834 29.541 14.4444C29.541 14.4444 30.5256 12.9678 30.8986 12.5583C31.2511 12.6394 32.5191 12.9255 33.3174 13.0781C33.4127 13.5675 34.0725 14.9546 34.3461 15.33C34.1035 15.6468 33.2779 16.7246 32.7554 17.4027C32.5055 17.422 31.8075 17.4242 30.6892 17.0342C30.1426 16.3626 29.6593 14.2383 29.6534 14.2202L29.5469 14.4431L29.4076 14.3597C29.4255 14.4403 29.87 16.3277 30.4199 17.1084C30.338 17.3658 30.1759 17.8903 30.1081 18.1661C29.7451 18.0515 29.4126 17.8611 29.131 17.6068C28.5042 16.7265 28.1366 15.6755 28.0686 14.5697L28.0724 14.5617ZM29.7051 18.2991C29.8732 18.3769 30.052 18.4308 30.2365 18.4593C30.7302 18.8248 31.2468 19.1581 31.7835 19.4574C31.8185 19.5416 31.8709 19.6165 31.9375 19.6771C31.092 19.4018 30.3285 18.9305 29.7051 18.2991ZM33.0078 19.9114C32.501 19.7664 32.2517 19.6127 32.1272 19.4956C32.5878 19.421 33.0449 19.3185 33.496 19.1888C33.7462 19.2345 35.2514 19.4786 36.5241 18.9796L36.6866 19.1456C35.5534 19.7951 34.2621 20.0661 33.0029 19.9186L33.0078 19.9114Z" fill="#4C3F31"/>
<path d="M34.3585 12.3375C34.3585 12.3375 35.4917 11.394 35.6595 11.4795C36.0293 11.6688 37.1853 12.5279 37.2371 12.7264C37.289 12.925 36.9548 14.2843 36.9548 14.2843C36.9548 14.2843 37.1274 12.8473 37.0637 12.7824C36.5827 12.3451 35.6759 11.6835 35.4534 11.7794C34.5609 12.1665 34.58 12.2794 34.3585 12.3375Z" fill="#4C3F31"/>
<path d="M31.3317 17.5287C31.3964 17.5556 32.5422 17.6754 32.6057 17.7891C32.6692 17.9028 33.129 18.6935 33.129 18.6935C33.129 18.6935 32.6272 18.0246 32.4564 17.9336C32.2857 17.8425 31.3317 17.5287 31.3317 17.5287Z" fill="#4C3F31"/>
<path d="M29.5115 11.0955C29.5115 11.0955 30.2921 10.7087 30.3232 10.8089C30.3544 10.9091 30.7425 12.2042 30.6982 12.3051C30.6538 12.406 30.3172 13.0051 30.3172 13.0051C30.413 12.7485 30.4927 12.4867 30.5558 12.2213C30.5436 12.0377 30.2143 11.0038 30.1511 10.9867C29.9365 11.0097 29.7229 11.046 29.5115 11.0955Z" fill="#4C3F31"/>
<path d="M30.4558 19.0531C30.4558 19.0531 20.8272 19.028 13.1552 26.612C13.1552 26.612 20.556 19.8858 33.2912 20.3829C33.2945 20.3781 30.5138 19.2962 30.4558 19.0531Z" fill="#4C3F31"/>
<path d="M27.7568 14.9439C27.7568 14.9439 17.2139 16.1791 9.08008 27.0617C9.08008 27.0617 15.5458 18.8906 28.0813 16.3827C28.0847 16.385 27.9829 15.4759 27.7568 14.9439Z" fill="#4C3F31"/>
<path d="M30.1313 9.12033C30.1313 9.12033 17.9908 12.0696 9.63436 22.7257C9.63436 22.7257 15.8775 14.6942 28.3703 11.4141C28.3737 11.4165 29.8175 9.72985 30.1313 9.12033Z" fill="#4C3F31"/>
<path d="M37.4988 8.41637C36.2789 7.58063 34.7988 7.21237 33.3295 7.37905C31.8602 7.54574 30.5002 8.2362 29.4985 9.32396L29.487 9.34069C28.644 10.2644 28.1031 11.4235 27.9367 12.6629C27.7702 13.9024 27.9862 15.1631 28.5556 16.2765C29.1251 17.3899 30.0209 18.3028 31.1233 18.8933C32.2257 19.4838 33.4821 19.7236 34.7245 19.5807C35.9668 19.4378 37.136 18.919 38.0755 18.0937C39.015 17.2683 39.6802 16.1758 39.982 14.9622C40.2838 13.7486 40.2079 12.4718 39.7644 11.3025C39.3209 10.1332 38.531 9.12721 37.5003 8.41902L37.4988 8.41637ZM33.8361 18.2571C33.6503 18.0375 33.2317 17.5019 33.0647 16.9586C33.5999 16.2753 34.5084 15.0965 34.6541 14.9059C35.0824 14.916 36.2343 14.934 36.7128 14.8638C37.1046 15.4315 37.4638 16.021 37.7888 16.6295C37.5486 17.1919 37.0772 17.7154 36.7821 18.0086C35.7122 18.5165 34.2814 18.3332 33.8361 18.2571ZM33.443 12.4168C32.6621 12.253 31.3815 11.9396 31.0522 11.8596C30.9387 11.5467 30.6957 10.8297 30.6621 10.4173C31.2013 9.65726 31.8852 9.01108 32.6747 8.51586C33.1378 8.52535 34.1921 8.57315 34.7653 8.84548C35.0002 9.50625 35.1682 10.1889 35.2669 10.8832C34.911 11.174 33.7675 12.1093 33.443 12.4168ZM29.3854 10.5928C29.3638 10.4158 29.3757 10.2362 29.4206 10.0636C30.1781 9.04036 31.2561 8.30004 32.4831 7.96055L32.4606 8.36382C31.7117 8.84715 31.058 9.46395 30.5321 10.1835C30.1315 10.2619 29.745 10.3998 29.3854 10.5928ZM35.5081 10.8141C35.408 10.1256 35.2407 9.4485 35.0086 8.79258C35.3668 8.68896 35.731 8.60742 36.0992 8.54843C36.1137 8.5584 37.6425 9.30664 38.4247 10.2858C38.6073 10.6462 38.8755 11.2525 38.869 11.6421C38.4149 11.8129 37.8157 12.0301 37.4284 12.1516C37.1202 11.8282 35.9809 10.9649 35.5081 10.8141ZM37.9723 16.4485C37.656 15.8636 37.3087 15.296 36.9318 14.7482C37.0123 14.4423 37.4256 12.8656 37.4988 12.3839C37.9479 12.2441 38.6076 11.9962 38.9355 11.875C39.1021 12.1799 39.587 13.2308 39.587 13.2308C39.5075 14.2385 39.2426 15.2228 38.8057 16.1343C38.5333 16.2539 38.2549 16.3591 37.9715 16.4496L37.9723 16.4485ZM39.0566 16.1753C39.3678 15.516 39.5913 14.8188 39.7213 14.1014C39.6419 14.8403 39.4182 15.5565 39.0629 16.2092L39.0566 16.1753ZM38.4961 9.87835C38.4771 9.8916 38.4571 9.90409 38.4377 9.91546C37.5938 9.00712 36.2721 8.35188 36.212 8.32213L35.976 8.07292C36.9666 8.42998 37.8396 9.05312 38.4991 9.87389L38.4961 9.87835ZM29.1799 10.7915C29.0224 11.0972 28.5475 12.0895 28.5931 12.9075C28.5165 13.019 28.4083 13.2123 28.2946 13.4232C28.3008 12.3829 28.5919 11.3641 29.1362 10.4774C29.1382 10.5854 29.1513 10.6929 29.1753 10.7982L29.1799 10.7915ZM28.3151 13.9382C28.4319 13.6786 28.5646 13.4265 28.7124 13.1832C29.0107 13.4683 29.3578 13.6973 29.7372 13.8594C29.7372 13.8594 30.6591 12.4746 31.0118 12.0929C31.3556 12.178 32.5921 12.4792 33.37 12.6425C33.4734 13.111 34.1447 14.4475 34.4186 14.8114C34.1903 15.1078 33.4137 16.1162 32.922 16.7505C32.68 16.7633 32.003 16.7496 30.9093 16.3529C30.3639 15.7007 29.8473 13.6657 29.8412 13.6484L29.7429 13.8584L29.6059 13.7757C29.6251 13.853 30.0987 15.6613 30.6497 16.4176C30.5761 16.661 30.4306 17.1571 30.371 17.4183C30.0163 17.3009 29.6895 17.1121 29.4106 16.8635C28.7827 16.0106 28.4024 15.0009 28.3117 13.9457L28.3151 13.9382ZM29.9831 17.536C30.1479 17.6139 30.3226 17.6693 30.5022 17.7006C30.9894 18.06 31.498 18.3892 32.0254 18.6864C32.0612 18.7675 32.1138 18.84 32.1797 18.8992C31.3533 18.6179 30.602 18.1516 29.9831 17.536ZM33.2233 19.1466C32.7283 18.997 32.4831 18.8449 32.3597 18.7305C32.8048 18.6698 33.246 18.5824 33.6807 18.4689C33.9244 18.5182 35.3901 18.7846 36.6135 18.3377L36.7749 18.4995C35.6902 19.0929 34.4435 19.3221 33.2187 19.1532L33.2233 19.1466Z" fill="#FAF6F2"/>
<path d="M34.3632 11.9598C34.3632 11.9598 35.4412 11.0863 35.606 11.1715C35.969 11.3602 37.1097 12.2047 37.1645 12.3951C37.2193 12.5855 36.9257 13.8732 36.9257 13.8732C36.9257 13.8732 37.0608 12.5078 36.9975 12.4446C36.521 12.017 35.6265 11.3663 35.4128 11.4526C34.5557 11.8014 34.5767 11.9095 34.3632 11.9598Z" fill="#FAF6F2"/>
<path d="M31.5432 16.8372C31.6067 16.8643 32.7209 17.0042 32.785 17.114C32.8492 17.2237 33.313 17.9875 33.313 17.9875C33.313 17.9875 32.8112 17.3388 32.6435 17.2483C32.4758 17.1577 31.5432 16.8372 31.5432 16.8372Z" fill="#FAF6F2"/>
<path d="M29.6331 10.6668C29.6331 10.6668 30.3817 10.3158 30.4141 10.412C30.4466 10.5081 30.8523 11.7508 30.8115 11.846C30.7708 11.9412 30.4577 12.5044 30.4577 12.5044C30.5449 12.2621 30.6163 12.0145 30.6715 11.763C30.6556 11.5878 30.3128 10.5952 30.2511 10.5775C30.0435 10.5946 29.8371 10.6244 29.6331 10.6668Z" fill="#FAF6F2"/>
<path d="M30.7283 18.2702C30.7283 18.2702 21.387 18.0298 14.115 25.0835C14.115 25.0835 21.1433 18.841 33.5089 19.601C33.5119 19.5965 30.79 18.5031 30.7283 18.2702Z" fill="#FAF6F2"/>
<path d="M28.0177 14.2951C28.0177 14.2951 17.8178 15.235 10.1719 25.4213C10.1719 25.4213 16.2605 17.7811 28.3648 15.6733C28.3682 15.6756 28.249 14.8071 28.0177 14.2951Z" fill="#FAF6F2"/>
<path d="M30.1904 8.80026C30.1904 8.80026 18.4792 11.3374 10.6122 21.3028C10.6122 21.3028 16.4881 13.7907 28.5336 10.9462C28.537 10.9485 29.8997 9.37396 30.1904 8.80026Z" fill="#FAF6F2"/>
<path d="M49.86 8.90039C51.0067 8.90039 52.1667 9.12706 53.34 9.58039L52.82 12.3004L52.34 12.4804C51.8334 12.1471 51.3267 11.8871 50.82 11.7004C50.3134 11.5137 49.8734 11.4204 49.5 11.4204C49.06 11.4204 48.7067 11.5337 48.44 11.7604C48.1867 11.9737 48.06 12.2271 48.06 12.5204C48.06 12.8537 48.22 13.1404 48.54 13.3804C48.8734 13.6071 49.3934 13.8804 50.1 14.2004C50.8467 14.5471 51.4467 14.8671 51.9 15.1604C52.3667 15.4404 52.7667 15.8204 53.1 16.3004C53.4467 16.7804 53.62 17.3671 53.62 18.0604C53.62 18.8337 53.4067 19.5337 52.98 20.1604C52.5667 20.7871 51.9734 21.2871 51.2 21.6604C50.4267 22.0204 49.5334 22.2004 48.52 22.2004C47.1734 22.2004 45.84 21.9337 44.52 21.4004L44.98 18.5004L45.32 18.3004C45.88 18.7671 46.4867 19.1337 47.14 19.4004C47.8067 19.6537 48.38 19.7804 48.86 19.7804C49.3667 19.7804 49.7467 19.6671 50 19.4404C50.2667 19.2137 50.4 18.9471 50.4 18.6404C50.4 18.2804 50.2334 17.9804 49.9 17.7404C49.5667 17.5004 49.0467 17.2204 48.34 16.9004C47.62 16.5671 47.0267 16.2604 46.56 15.9804C46.1067 15.6871 45.7134 15.3004 45.38 14.8204C45.0467 14.3404 44.88 13.7537 44.88 13.0604C44.88 12.2737 45.0867 11.5671 45.5 10.9404C45.9267 10.3004 46.5134 9.80039 47.26 9.44039C48.02 9.08039 48.8867 8.90039 49.86 8.90039ZM107.421 19.5804L107.201 22.0004H99.9411L100.121 18.1804L99.9411 9.10039H103.241L103.061 17.8604L103.121 19.3404H107.221L107.421 19.5804Z" fill="#FAF6F2"/>
<defs>
<filter id="filter0_f" x="40.52" y="4.90039" width="17.1" height="21.3" filterUnits="userSpaceOnUse" color-interpolation-filters="sRGB">
<feFlood flood-opacity="0" result="BackgroundImageFix"/>
<feBlend mode="normal" in="SourceGraphic" in2="BackgroundImageFix" result="shape"/>
<feGaussianBlur stdDeviation="2" result="effect1_foregroundBlur"/>
</filter>
<filter id="filter1_f" x="96" y="5" width="15.48" height="20.9" filterUnits="userSpaceOnUse" color-interpolation-filters="sRGB">
<feFlood flood-opacity="0" result="BackgroundImageFix"/>
<feBlend mode="normal" in="SourceGraphic" in2="BackgroundImageFix" result="shape"/>
<feGaussianBlur stdDeviation="2" result="effect1_foregroundBlur"/>
</filter>
<filter id="filter2_f" x="6.17188" y="3.33984" width="37.9916" height="26.0814" filterUnits="userSpaceOnUse" color-interpolation-filters="sRGB">
<feFlood flood-opacity="0" result="BackgroundImageFix"/>
<feBlend mode="normal" in="SourceGraphic" in2="BackgroundImageFix" result="shape"/>
<feGaussianBlur stdDeviation="2" result="effect1_foregroundBlur"/>
</filter>
</defs>
</svg>
